# xmcd
#
# Track frame offsets:
#	150
#	17300
#	31897
#	45537
#	62798
#	74798
#	87352
#	100555
#	112935
#	126020
#	138855
#	153762
#	167554
#
# Disc length: 2434 seconds
#
# Revision: 0
# Processed by: cddbd v1.5.1PL2 Copyright (c) Steve Scherf et al.
# Submitted via: audiograbber 1.83.01
#
DISCID=9909800d
DTITLE=Dorothee - Reise duch das Leben (www.hit-radio24.de)
DYEAR=1999
DGENRE=Country
TTITLE0=Geh' deinen Weg
TTITLE1=Immer wieder kommt ein neuer Tag
TTITLE2=Kleiner Teddybär
TTITLE3=Ein kleines Liebeslied
TTITLE4=Der Clochard
TTITLE5=Ich bin frei
TTITLE6=Wir freu'n uns so am Leben
TTITLE7=Sehnsucht
TTITLE8=komm, lass uns Tango tanzen
TTITLE9=Guter alter Clown
TTITLE10=Einsamkeit
TTITLE11=Der Wind singt sein uraltes Lied
TTITLE12=Abschied
EXTD=eingestellt www.hit-radio24.de
EXTT0=
EXTT1=
EXTT2=
EXTT3=
EXTT4=
EXTT5=
EXTT6=
EXTT7=
EXTT8=
EXTT9=
EXTT10=
EXTT11=
EXTT12=
PLAYORDER=
